<svg width="28" height="37" viewBox="0 0 28 37" fill="none" xmlns="http://www.w3.org/2000/svg">
<g clip-path="url(#clip0_1804_91159)">
<path fill-rule="evenodd" clip-rule="evenodd" d="M5.90331 34.9158C5.90331 35.9 5.0832 36.556 4.26309 36.719C3.28105 36.719 2.62496 35.9 2.46094 35.0798C2.46094 34.0968 3.28105 33.4407 4.10011 33.2766C5.08425 33.2766 5.90331 34.0957 5.90331 34.9158ZM15.0823 34.9158C15.0823 35.9 14.2632 36.556 13.4431 36.719C12.46 36.719 11.8039 35.9 11.641 35.0798C11.641 34.0968 12.46 33.4407 13.2791 33.2766C14.2632 33.2766 15.0823 33.9306 15.0823 34.9158ZM24.2634 34.9158C24.2634 35.9 23.4432 36.556 22.6231 36.719C21.639 36.719 20.984 35.9 20.8199 35.0798C20.8199 34.0968 21.64 33.4407 22.4602 33.2766C23.4443 33.1126 24.2634 33.9306 24.2634 34.9158Z" fill="#323232"/>
<mask id="mask0_1804_91159" style="mask-type:luminance" maskUnits="userSpaceOnUse" x="0" y="0" width="27" height="33">
<path d="M0 0H26.2279V32.1296H0.00105143L0 0Z" fill="#323232"/>
</mask>
<g mask="url(#mask0_1804_91159)">
<path fill-rule="evenodd" clip-rule="evenodd" d="M5.90347 20.6543C5.7519 20.658 5.60114 20.6309 5.46035 20.5747C5.31955 20.5184 5.19164 20.4342 5.08438 20.327C4.97712 20.2198 4.89274 20.092 4.83636 19.9513C4.77997 19.8105 4.75276 19.6598 4.75636 19.5082V18.359C4.75636 17.704 5.24738 17.2129 5.90242 17.2129H20.8211C21.4772 17.2129 21.9672 17.704 21.9672 18.359V19.5072C21.9672 20.1622 21.4772 20.6543 20.8211 20.6543H5.90347ZM5.73945 2.45824C5.73945 1.8032 6.23152 1.31218 6.88761 1.31218H19.509C20.1651 1.31218 20.655 1.8032 20.655 2.45824L19.509 16.2288H6.88761L5.73945 2.45824ZM22.9513 11.4742V12.6224H24.0995V18.359C24.0995 19.3431 23.6074 20.1622 22.7884 20.4902C22.9524 20.1622 22.9524 19.8352 22.9524 19.5072V18.359C22.9524 17.0479 21.9683 16.0648 20.6561 16.0648L21.8042 2.29527C21.8042 0.983086 20.8211 0 19.509 0H6.88761C5.57543 0 4.59234 0.983086 4.59234 2.29527L5.7384 16.0648C4.42832 16.0648 3.44418 17.0479 3.44418 18.359V19.5072C3.44418 19.8352 3.44418 20.1622 3.6082 20.4902C2.78809 20.1622 2.29707 19.3442 2.29707 18.359V12.6224H3.44313V11.4742H0.00390625V12.6224H1.14996V18.359C1.14996 20.3262 2.62617 21.8014 4.59339 21.8014H11.4781L12.1342 24.0966H12.6263V28.0311C7.70772 28.1951 3.44523 29.3422 3.44523 32.1296H4.59339C4.59339 30.3264 8.19979 29.3433 12.6263 29.1782V31.9655H13.7724V29.1792C18.0349 29.1792 21.8053 30.1613 21.8053 31.9655H22.9534C22.9534 29.1792 18.6909 28.0311 13.7724 28.0311V24.0966H14.2644L14.7565 21.8014H21.6413C23.6074 21.8014 25.0836 20.3262 25.0836 18.359V12.6224H26.2318V11.4742H22.9534H22.9513Z" fill="#323232"/>
</g>
</g>
<defs>
<clipPath id="clip0_1804_91159">
<rect width="26.2857" height="36.8" fill="white"/>
</clipPath>
</defs>
</svg>
