<svg width="38" height="37" viewBox="0 0 38 37" fill="none" xmlns="http://www.w3.org/2000/svg">
<g clip-path="url(#clip0_1804_91142)">
<path fill-rule="evenodd" clip-rule="evenodd" d="M10.8575 35.5304H24.6345V34.2619H10.8575V35.5304ZM29.0183 7.1369L22.9129 13.3239C19.4687 9.35755 18.3727 5.3935 19.7815 3.96635C21.1902 2.69675 25.1037 3.6478 29.0183 7.1369ZM17.7448 31.0903H17.432L4.43934 18.0826C4.59689 17.7652 4.59689 17.6077 4.59689 17.2891C4.59689 16.9729 4.59689 16.6554 4.43934 16.4956L16.8064 3.8065H17.5907C17.9035 3.8065 18.2152 3.64895 18.5303 3.4891C16.8064 5.8696 18.6855 10.9445 22.9129 15.2283L30.7398 7.13805C26.5124 2.8543 21.5053 1.10975 19.1559 2.8543C19.3123 2.53805 19.4687 2.22065 19.4687 1.90325C19.4698 0.79235 18.6878 0 17.5907 0C16.4936 0 15.7128 0.7935 15.7128 1.90325C15.7128 2.22065 15.7128 2.53805 15.8669 2.69675L3.50094 15.3858C3.18814 15.2283 3.03174 15.2283 2.71779 15.2283C1.62184 15.2283 0.839844 16.0195 0.839844 17.1304C0.839844 18.2424 1.62299 19.0348 2.71779 19.0348C3.03174 19.0348 3.34454 19.0348 3.50094 18.875L16.3372 31.7239C16.0244 32.0413 15.8669 32.5174 15.8669 32.9935H9.60629V36.8L25.888 36.6424V32.8325H19.6251C19.6251 31.8826 18.8419 31.0879 17.746 31.0879L17.7448 31.0903Z" fill="#323232"/>
</g>
<defs>
<clipPath id="clip0_1804_91142">
<rect width="29.9" height="36.8" fill="white" transform="translate(0.839844)"/>
</clipPath>
</defs>
</svg>
