<svg width="37" height="37" viewBox="0 0 37 37" fill="none" xmlns="http://www.w3.org/2000/svg">
<g clip-path="url(#clip0_1804_91147)">
<mask id="mask0_1804_91147" style="mask-type:luminance" maskUnits="userSpaceOnUse" x="0" y="0" width="34" height="37">
<path d="M0 0.000976562H33.4122V36.7869H0V0.000976562Z" fill="#323232"/>
</mask>
<g mask="url(#mask0_1804_91147)">
<path fill-rule="evenodd" clip-rule="evenodd" d="M16.705 1.01319C16.0307 1.01319 15.3553 1.18095 14.8488 1.51973L3.20593 8.2682C2.19393 8.94251 1.34861 10.2922 1.34861 11.643V24.9743C1.34861 26.1541 2.19393 27.6737 3.20593 28.348L14.8488 35.0986C15.3553 35.4353 16.0307 35.6041 16.705 35.6041C17.3804 35.6041 18.0558 35.4353 18.5624 35.0986L30.2052 28.348C31.2172 27.6737 32.0615 26.324 32.0615 24.9743V11.6441C32.0615 10.4632 31.2172 8.94359 30.2052 8.26928L18.5624 1.51865C18.2236 1.18095 17.5493 1.01319 16.705 1.01319ZM16.705 36.7882C15.693 36.7882 14.8488 36.6183 14.1745 36.1128L2.53054 29.3611C1.18085 28.689 0 26.6628 0 25.1453V11.8129C0 10.1244 1.18193 8.2682 2.53271 7.42505L14.1734 0.673329C14.8477 0.336718 15.8619 -0.000976562 16.704 -0.000976562C17.5482 -0.000976562 18.5613 0.168953 19.2367 0.673329L30.8795 7.42613C32.3981 8.27036 33.4122 10.1266 33.4122 11.8151V25.1453C33.4122 26.8327 32.2292 28.689 30.8795 29.5332L19.2356 36.2817C18.729 36.6194 17.717 36.7893 16.704 36.7893" fill="#323232"/>
</g>
<path fill-rule="evenodd" clip-rule="evenodd" d="M16.7062 5.73641C14.5133 5.73641 12.6582 7.59373 12.6582 9.78766C12.6582 12.1494 14.6822 16.0307 16.7062 16.0307C18.7312 16.0307 20.7563 12.1494 20.7563 9.78766C20.9252 7.42488 19.07 5.73641 16.7062 5.73641ZM16.7062 17.3804C13.5002 17.3804 11.3074 12.487 11.3074 9.78766C11.3074 6.91834 13.6691 4.38672 16.7062 4.38672C19.7443 4.38672 22.1071 6.75058 22.1071 9.78766C22.1071 12.487 19.9132 17.3804 16.7062 17.3804ZM26.325 28.5178C25.9873 28.5178 25.6507 28.1801 25.6507 27.8424C25.6507 23.2868 21.6006 19.5743 16.7062 19.5743C11.8139 19.5743 7.76376 23.2868 7.76376 27.8435C7.76376 28.1801 7.42606 28.5178 7.08837 28.5178C6.75067 28.5178 6.41406 28.1801 6.41406 27.8424C6.41406 22.6114 10.9686 18.3934 16.7062 18.3934C22.4448 18.3934 27.0004 22.6114 27.0004 27.8424C27.0004 28.1801 26.8316 28.5178 26.325 28.5178Z" fill="#323232"/>
</g>
<defs>
<clipPath id="clip0_1804_91147">
<rect width="33.5529" height="36.8" fill="white"/>
</clipPath>
</defs>
</svg>
